<svg width="36" height="37" viewBox="0 0 36 37" fill="none" xmlns="http://www.w3.org/2000/svg">
<g id="entypo-social:facebook-with-circle" clip-path="url(#clip0_41_1537)">
<path id="Vector" d="M18 0.00170898C8.05875 0.00170898 0 8.06046 0 18.0017C0 27.943 8.05875 36.0017 18 36.0017C27.9412 36.0017 36 27.943 36 18.0017C36 8.06046 27.9412 0.00170898 18 0.00170898ZM22.2638 12.4405H19.5581C19.2375 12.4405 18.8813 12.8623 18.8813 13.423V15.3767H22.2656L21.7537 18.163H18.8813V26.5273H15.6881V18.163H12.7912V15.3767H15.6881V13.738C15.6881 11.3867 17.3194 9.47608 19.5581 9.47608H22.2638V12.4405Z" fill="#039BE5"/>
</g>
<defs>
<clipPath id="clip0_41_1537">
<rect width="36" height="36" fill="white" transform="translate(0 0.00170898)"/>
</clipPath>
</defs>
</svg>
