<svg width="36" height="37" viewBox="0 0 36 37" fill="none" xmlns="http://www.w3.org/2000/svg">
<circle cx="18" cy="18.0017" r="18" fill="white"/>
<g clip-path="url(#clip0_41_1539)">
<path d="M18 0.00170898C8.06039 0.00170898 0 8.0621 0 18.0017C0 27.9413 8.06039 36.0017 18 36.0017C27.9396 36.0017 36 27.9413 36 18.0017C36 8.0621 27.9396 0.00170898 18 0.00170898ZM12.7694 27.2126H8.38559V14.0238H12.7694V27.2126ZM10.5776 12.2229H10.5491C9.078 12.2229 8.12659 11.2102 8.12659 9.94461C8.12659 8.65042 9.10712 7.66577 10.6068 7.66577C12.1064 7.66577 13.0292 8.65042 13.0578 9.94461C13.0578 11.2102 12.1064 12.2229 10.5776 12.2229ZM28.5765 27.2126H24.1933V20.157C24.1933 18.3838 23.5585 17.1744 21.9724 17.1744C20.7614 17.1744 20.0402 17.9902 19.7232 18.7776C19.6073 19.0594 19.579 19.4533 19.579 19.8474V27.2126H15.1955C15.1955 27.2126 15.2529 15.2612 15.1955 14.0238H19.579V15.8912C20.1616 14.9926 21.2039 13.7143 23.5297 13.7143C26.4139 13.7143 28.5765 15.5993 28.5765 19.6502V27.2126Z" fill="#0288D1"/>
</g>
<defs>
<clipPath id="clip0_41_1539">
<rect width="36" height="36" fill="white" transform="translate(0 0.00170898)"/>
</clipPath>
</defs>
</svg>
