<svg width="36" height="36" viewBox="0 0 36 36" fill="none" xmlns="http://www.w3.org/2000/svg">
<circle cx="18" cy="18" r="18" fill="#25D366"/>
<path d="M18 8C23.523 8 28 12.477 28 18C28 23.523 23.523 28 18 28C16.2328 28.0029 14.4967 27.5352 12.97 26.645L8.00401 28L9.35601 23.032C8.46511 21.5049 7.99706 19.768 8.00001 18C8.00001 12.477 12.477 8 18 8ZM14.592 13.3L14.392 13.308C14.2625 13.3159 14.136 13.3499 14.02 13.408C13.9115 13.4694 13.8125 13.5462 13.726 13.636C13.606 13.749 13.538 13.847 13.465 13.942C13.0951 14.4229 12.896 15.0133 12.899 15.62C12.901 16.11 13.029 16.587 13.229 17.033C13.638 17.935 14.311 18.89 15.199 19.775C15.413 19.988 15.623 20.202 15.849 20.401C16.9524 21.3725 18.2673 22.073 19.689 22.447L20.257 22.534C20.442 22.544 20.627 22.53 20.813 22.521C21.1043 22.506 21.3886 22.4271 21.646 22.29C21.777 22.2225 21.9048 22.1491 22.029 22.07C22.029 22.07 22.072 22.042 22.154 21.98C22.289 21.88 22.372 21.809 22.484 21.692C22.567 21.606 22.639 21.505 22.694 21.39C22.772 21.227 22.85 20.916 22.882 20.657C22.906 20.459 22.899 20.351 22.896 20.284C22.892 20.177 22.803 20.066 22.706 20.019L22.124 19.758C22.124 19.758 21.254 19.379 20.722 19.137C20.6663 19.1127 20.6067 19.0988 20.546 19.096C20.4776 19.089 20.4085 19.0967 20.3433 19.1186C20.2781 19.1405 20.2183 19.1761 20.168 19.223C20.163 19.221 20.096 19.278 19.373 20.154C19.3315 20.2098 19.2744 20.2519 19.2088 20.2751C19.1433 20.2982 19.0723 20.3013 19.005 20.284C18.9399 20.2665 18.876 20.2445 18.814 20.218C18.69 20.166 18.647 20.146 18.562 20.11C17.9881 19.8595 17.4567 19.5211 16.987 19.107C16.861 18.997 16.744 18.877 16.624 18.761C16.2306 18.3842 15.8877 17.958 15.604 17.493L15.545 17.398C15.5026 17.3342 15.4684 17.2653 15.443 17.193C15.405 17.046 15.504 16.928 15.504 16.928C15.504 16.928 15.747 16.662 15.86 16.518C15.97 16.378 16.063 16.242 16.123 16.145C16.241 15.955 16.278 15.76 16.216 15.609C15.936 14.925 15.646 14.244 15.348 13.568C15.289 13.434 15.114 13.338 14.955 13.319C14.901 13.313 14.847 13.307 14.793 13.303C14.6587 13.2963 14.5241 13.2977 14.39 13.307L14.591 13.299L14.592 13.3Z" fill="white"/>
</svg>
