<svg width="36" height="36" viewBox="0 0 36 36" fill="none" xmlns="http://www.w3.org/2000/svg">
<circle cx="18" cy="18" r="18" fill="#FF0000"/>
<path d="M23.812 11.0166H12.145C9.855 11.0166 8 12.8516 8 15.1156V20.8836C8 23.1476 9.856 24.9836 12.145 24.9836H23.812C26.102 24.9836 27.957 23.1476 27.957 20.8836V15.1156C27.957 12.8516 26.101 11.0156 23.812 11.0156V11.0166ZM21.009 18.2796L15.552 20.8546C15.5187 20.8707 15.4819 20.878 15.445 20.876C15.4081 20.874 15.3724 20.8626 15.341 20.8431C15.3097 20.8235 15.2838 20.7964 15.2658 20.7641C15.2478 20.7318 15.2382 20.6956 15.238 20.6586V15.3496C15.2387 15.3125 15.2487 15.2761 15.2672 15.2439C15.2857 15.2118 15.3121 15.1848 15.3438 15.1655C15.3756 15.1462 15.4117 15.1353 15.4488 15.1338C15.4859 15.1322 15.5228 15.1401 15.556 15.1566L21.014 17.8916C21.0504 17.9098 21.0809 17.9378 21.102 17.9725C21.1232 18.0071 21.1341 18.0471 21.1336 18.0877C21.1331 18.1283 21.1211 18.168 21.0991 18.2021C21.077 18.2362 21.0458 18.2624 21.009 18.2796Z" fill="white"/>
</svg>
